#!OML:ASF F:\VICON\USERDATA\INSTALL\rory3\rory3.ASF
:FULLY-SPECIFIED
:DEGREES
172
root 0.440931 18.2145 0.881537 -3.172 -1.38873 -5.01891
lowerback 10.6462 -0.123496 3.93854
upperback 0.584623 0.440001 2.32569
thorax -5.35598 0.148475 0.148813
lowerneck -17.0202 -2.8471 -2.47209
upperneck 20.0171 -3.53006 1.06013
head 9.16708 -1.72334 0.320163
rclavicle 3.6154e-015 -1.03368e-014
rhumerus -27.51 -10.4347 -82.279
rradius 28.4412
rwrist 0.762934
rhand -16.8652 20.0669
rfingers 7.12502
rthumb 9.36539 -9.70507
lclavicle 3.6154e-015 -1.03368e-014
lhumerus -33.2734 -0.869733 82.4631
lradius 31.1384
lwrist 7.0459
lhand -26.1184 26.6213
lfingers 7.12502
lthumb 0.431421 56.6006
rfemur -8.41802 4.55832 31.9725
rtibia 29.613
rfoot -14.3171 -7.1355
rtoes 7.11791
lfemur -21.0605 1.27534 -13.2365
ltibia 63.811
lfoot -5.64315 -6.8594
ltoes -6.02396
173
root 0.443612 18.1844 1.04244 -3.13636 -1.65109 -5.21827
lowerback 10.7808 0.0334426 4.21604
upperback 0.562912 0.6885 2.2787
thorax -5.44429 0.261745 -0.0937622
lowerneck -16.8275 -2.89 -2.42296
upperneck 19.7405 -3.59988 1.04569
head 9.03632 -1.75535 0.302491
rclavicle -1.3741e-014 -1.19271e-014
rhumerus -27.253 -10.1882 -82.436
rradius 28.6279
rwrist 0.604876
rhand -17.8235 21.6323
rfingers 7.12502
rthumb 8.44068 -8.17902
lclavicle -1.3741e-014 -1.19271e-014
lhumerus -33.7651 -0.899109 82.5628
lradius 31.1837
lwrist 7.18698
lhand -25.8146 25.8657
lfingers 7.12502
lthumb 0.72485 55.8442
rfemur -7.93508 4.42088 32.2019
rtibia 29.7603
rfoot -15.106 -6.71941
rtoes 8.10191
lfemur -22.0218 1.53097 -13.0257
ltibia 63.1248
lfoot -6.18734 -5.98399
ltoes -6.43346
174
root 0.445881 18.1517 1.19844 -3.10845 -1.75787 -5.52572
lowerback 11.039 0.0608436 4.60537
upperback 0.445022 0.794106 2.26003
thorax -5.70536 0.297619 -0.348558
lowerneck -16.2922 -2.82371 -2.25888
upperneck 19.3507 -3.52398 0.891335
head 8.79758 -1.72821 0.242613
rclavicle 5.03174e-016 1.19271e-015
rhumerus -27.1031 -9.32036 -82.7807
rradius 28.9904
rwrist 0.0608034
rhand -18.773 22.7596
rfingers 7.12502
rthumb 7.52427 -7.08662
lclavicle 5.03174e-016 1.19271e-015
lhumerus -34.5269 -0.995138 82.6748
lradius 31.4748
lwrist 7.8983
lhand -25.2833 24.8284
lfingers 7.12502
lthumb 1.23791 54.8045
rfemur -7.41837 4.55692 32.5958
rtibia 29.9161
rfoot -15.9144 -6.69983
rtoes 9.9321
lfemur -23.038 1.70004 -12.7243
ltibia 62.3749
lfoot -6.77617 -4.90429
ltoes -8.83416
175
root 0.452901 18.1341 1.36572 -3.00629 -1.92201 -5.86806
lowerback 10.902 0.155657 5.15791
upperback 0.568106 0.971044 2.22554
thorax -5.48244 0.375775 -0.721094
lowerneck -16.3777 -2.84215 -2.25478
upperneck 19.1209 -3.55779 0.951123
head 8.73615 -1.73702 0.258298
rclavicle -2.07481e-015 4.53229e-014
rhumerus -26.564 -8.47845 -83.1386
rradius 29.5586
rwrist -0.610674
rhand -18.9764 22.5966
rfingers 7.12502
rthumb 7.32788 -7.25646
lclavicle -2.07481e-015 4.53229e-014
lhumerus -34.6149 -1.30246 82.9573
lradius 31.2901
lwrist 9.37025
lhand -26.2867 22.3637
lfingers 7.12502
lthumb 0.268801 52.3433
rfemur -6.89805 4.76542 33.0152
rtibia 29.9464
rfoot -16.3339 -7.00468
rtoes 10.1259
lfemur -23.975 1.81113 -12.3738
ltibia 61.4692
lfoot -7.21541 -3.89317
ltoes -9.60759
176
root 0.459717 18.1284 1.52833 -2.84716 -2.19374 -5.97842
lowerback 10.8288 0.328727 5.35427
upperback 0.727301 1.21066 2.21973
thorax -5.25744 0.495861 -0.872439
lowerneck -17.0641 -2.9476 -2.39081
upperneck 19.2414 -3.66531 1.01302
head 8.90737 -1.78611 0.277632
rclavicle 1.02623e-014 -2.56432e-014
rhumerus -25.8082 -7.87395 -83.2822
rradius 29.9343
rwrist -0.979581
rhand -18.4493 23.3342
rfingers 7.12502
rthumb 7.8367 -6.50059
lclavicle 1.02623e-014 -2.56432e-014
lhumerus -34.4175 -1.54107 83.3134
lradius 30.3855
lwrist 10.9846
lhand -29.0168 16.1125
lfingers 7.12502
lthumb -2.36792 46.0791
rfemur -6.43226 4.65774 33.1355
rtibia 29.8102
rfoot -16.7474 -6.78355
rtoes 7.98526
lfemur -24.8562 1.92925 -12.2501
ltibia 60.302
lfoot -7.4571 -3.00089
ltoes -7.82292
177
root 0.462913 18.1215 1.68298 -2.7084 -2.47364 -6.21238
lowerback 11.1102 0.440575 5.59509
upperback 0.651317 1.41566 2.24745
thorax -5.47977 0.584548 -1.01301
lowerneck -17.1936 -2.95886 -2.36961
upperneck 19.2339 -3.6595 0.909662
head 8.92557 -1.79231 0.237972
rclavicle 9.69075e-016 7.35503e-015
rhumerus -25.4288 -7.29955 -83.425
rradius 30.3094
rwrist -1.2264
rhand -17.7632 23.8599
rfingers 7.12502
rthumb 8.49891 -5.94912
lclavicle 9.69075e-016 7.35503e-015
lhumerus -34.5524 -0.768025 82.9672
lradius 30.7848
lwrist 8.1276
lhand -26.6491 23.9679
lfingers 7.12502
lthumb -0.0811856 53.9476
rfemur -5.89099 4.51436 33.3885
rtibia 29.5576
rfoot -16.7906 -6.65729
rtoes 7.0352
lfemur -25.7439 1.93816 -11.9485
ltibia 58.8724
lfoot -7.61023 -2.2131
ltoes -5.82083
178
root 0.464721 18.1116 1.84765 -2.57552 -2.69824 -6.46877
lowerback 11.2534 0.532418 5.92016
upperback 0.550939 1.59379 2.22083
thorax -5.64711 0.657448 -1.25295
lowerneck -16.9761 -2.95095 -2.29885
upperneck 19.0747 -3.65716 0.849246
head 8.82895 -1.79413 0.210432
rclavicle -1.1896e-014 -4.47266e-015
rhumerus -25.342 -6.77328 -83.6055
rradius 30.9964
rwrist -1.63113
rhand -17.3411 23.6141
rfingers 7.12502
rthumb 8.90623 -6.17792
lclavicle -1.1896e-014 -4.47266e-015
lhumerus -35.0305 -0.483088 82.8168
lradius 31.1769
lwrist 7.06846
lhand -25.3537 27.5471
lfingers 7.12502
lthumb 1.16997 57.5237
rfemur -5.29968 4.43763 33.6714
rtibia 29.3105
rfoot -17.1251 -6.71384
rtoes 6.42994
lfemur -26.5367 1.91172 -11.6257
ltibia 57.2517
lfoot -7.77936 -1.34062
ltoes -4.54951
